<svg width="320" height="72" viewBox="0 0 320 72" fill="none" xmlns="http://www.w3.org/2000/svg">
<path d="M168.151 2.67719H320V0.0113983H168.151V2.67719Z" fill="white"/>
<path d="M168.151 71.6699H320V69.0042H168.151V71.6699Z" fill="white"/>
<path d="M189.236 45.1577V52.803C189.236 59.3234 186.013 62.5471 179.492 62.5471H177.844C171.397 62.5471 168.248 59.3234 168.248 52.9516V45.6447H174.094V53.1779C174.094 55.8757 175.37 57.1492 178.068 57.1492H179.266C181.966 57.1492 183.239 55.8757 183.239 53.1779V45.3063C183.239 42.6839 182.341 41.5591 180.615 40.2857L173.271 34.9632C169.373 32.19 168.248 29.4922 168.248 25.2191V18.925C168.248 12.4046 171.472 9.18096 177.992 9.18096H179.492C185.937 9.18096 189.085 12.4046 189.085 18.7741V23.2712H183.239V18.5501C183.239 15.85 181.966 14.5766 179.266 14.5766H178.217C175.519 14.5766 174.245 15.85 174.245 18.5501V25.146C174.245 27.7683 175.219 28.8932 176.943 30.1666L184.216 35.4136C188.036 38.1869 189.236 40.6606 189.236 45.1577Z" fill="white"/>
<path d="M198.439 62.0969V15.1758H190.569V9.62928H212.305V15.1758H204.436V62.0969H198.439Z" fill="white"/>
<path d="M235.955 52.8025C235.955 59.3229 232.731 62.5466 226.211 62.5466H224.336C217.815 62.5466 214.592 59.3229 214.592 52.8025V9.62859H220.589V53.102C220.589 55.8021 221.862 57.0755 224.562 57.0755H225.987C228.684 57.0755 229.958 55.8021 229.958 53.102V9.62859H235.955V52.8025Z" fill="white"/>
<path d="M245.775 56.6249H249.373C253.42 56.6249 255.295 54.6016 255.295 50.5549V21.1717C255.295 17.125 253.42 15.1017 249.373 15.1017H245.775V56.6249ZM239.778 9.63065H249.673C257.542 9.63065 261.29 13.3778 261.29 21.2472V50.4794C261.29 58.3488 257.542 62.096 249.673 62.096H239.778V9.63065Z" fill="white"/>
<path d="M270.896 62.0973H264.899V9.62974H270.896V62.0973Z" fill="white"/>
<path d="M286.271 14.6513H284.471C281.774 14.6513 280.5 15.9271 280.5 18.6249V53.1018C280.5 55.8019 281.774 57.0753 284.471 57.0753H286.271C288.968 57.0753 290.242 55.8019 290.242 53.1018V18.6249C290.242 15.9271 288.968 14.6513 286.271 14.6513ZM286.495 62.5464H284.247C277.727 62.5464 274.503 59.325 274.503 52.8023V18.9244C274.503 12.4039 277.727 9.18027 284.247 9.18027H286.495C293.017 9.18027 296.239 12.4039 296.239 18.9244V52.8023C296.239 59.325 293.017 62.5464 286.495 62.5464" fill="white"/>
<path d="M319.87 45.1577V52.803C319.87 59.3234 316.647 62.5471 310.126 62.5471H308.478C302.031 62.5471 298.882 59.3234 298.882 52.9516V45.6447H304.728V53.1779C304.728 55.8757 306.004 57.1492 308.702 57.1492H309.9C312.6 57.1492 313.873 55.8757 313.873 53.1779V45.3063C313.873 42.6839 312.975 41.5591 311.249 40.2857L303.905 34.9632C300.007 32.19 298.882 29.4922 298.882 25.2191V18.925C298.882 12.4046 302.106 9.18096 308.626 9.18096H310.126C316.571 9.18096 319.722 12.4046 319.722 18.7741V23.2712H313.873V18.5501C313.873 15.85 312.6 14.5766 309.9 14.5766H308.851C306.153 14.5766 304.879 15.85 304.879 18.5501V25.146C304.879 27.7683 305.853 28.8932 307.577 30.1666L314.85 35.4136C318.67 38.1869 319.87 40.6606 319.87 45.1577Z" fill="white"/>
<path d="M0 71.6974H159.175V-3.05176e-05H0V71.6974Z" fill="#E50B14"/>
<path d="M134.899 19.182H126.403V31.034H134.899V40.6135H126.403V52.6438H134.899V62.0816H117.008V14.5272L109.466 62.0816L98.4303 62.1113C98.4303 62.1113 92.8015 28.4345 92.7923 28.3637V28.3659C93.7023 33.8073 90.282 39.4909 87.2573 41.7338L93.229 62.0816H93.2199H93.2039L93.2084 62.093H93.1924H83.9399H83.9308L79.3765 44.7288L77.1817 45.0511V62.0816H77.1657H77.1542V62.093H77.1451L59.2047 62.0816L58.1028 54.011H50.7456L49.639 62.0816H31.3694V36.7931L27.1192 62.0816H22.0826L17.7707 36.7931V62.0816H8.29181V9.61624H20.3267L24.5518 36.7223L28.8888 9.61624H40.9169V57.8657L48.1529 9.60938L60.7228 9.61624L67.7211 56.1921L67.7577 9.61624C67.7577 9.61624 77.3074 9.61167 77.3646 9.61624C86.0135 9.61624 89.9414 15.9606 91.0502 18.1463L89.9756 9.61624H99.5711L103.901 41.5691L108.282 9.61624H134.899V19.182Z" fill="white"/>
<path d="M77.2277 18.9532C77.2071 18.9532 77.1911 18.9532 77.1819 18.9532V35.8258C77.9227 35.8258 78.6795 35.6498 79.4088 35.3C81.6196 34.2231 83.5012 31.5436 83.5012 27.298C83.5012 19.1726 77.9684 18.9463 77.2277 18.9532Z" fill="#E50B14"/>
<path d="M51.8611 45.6568H57.1629L54.4629 23.2239L51.8611 45.6568Z" fill="#E50B14"/>
<path d="M153.989 62.0701H136.536V9.6071H145.935V52.6347H153.989V62.0701Z" fill="white"/>
</svg>
